<?xml version="1.0" standalone="no"?>
<!DOCTYPE svg PUBLIC "-//W3C//DTD SVG 20010904//EN"
 "http://www.w3.org/TR/2001/REC-SVG-20010904/DTD/svg10.dtd">
<svg version="1.0" xmlns="http://www.w3.org/2000/svg"
 width="1000.000000pt" height="484.000000pt" viewBox="0 0 1000.000000 484.000000"
 preserveAspectRatio="xMidYMid meet">
<metadata>
Created by potrace 1.16, written by Peter Selinger 2001-2019
</metadata>
<g transform="translate(0.000000,484.000000) scale(0.100000,-0.100000)"
fill="#000000" stroke="none">
<path d="M0 2420 l0 -2420 4735 0 4735 0 0 400 0 400 -402 2 -403 3 -6 1820
c-3 1001 -7 1909 -8 2018 l-1 197 -4325 0 -4325 0 0 -2420z m1493 945 c100
-26 178 -90 218 -180 34 -74 32 -200 -2 -275 -37 -80 -82 -126 -160 -164 l-69
-33 110 -144 110 -144 0 -75 c0 -46 -5 -81 -12 -88 -13 -13 -85 -16 -113 -6
-9 4 -88 102 -177 218 -89 116 -166 214 -172 219 -6 4 -54 6 -106 5 l-95 -3
-5 -220 -5 -220 -105 0 -105 0 -3 550 c-1 303 0 556 3 563 7 19 611 17 688 -3z
m1682 -310 c102 -30 199 -132 230 -239 8 -28 16 -91 17 -141 l3 -90 -267 -3
c-173 -1 -268 -6 -268 -12 0 -22 29 -76 51 -97 56 -50 165 -50 219 2 26 25 31
26 126 23 114 -3 118 -8 84 -82 -53 -112 -153 -168 -305 -170 -196 -2 -320 79
-385 252 -75 200 3 451 168 536 88 45 219 54 327 21z m1483 0 c71 -22 146 -93
162 -154 18 -69 15 -71 -106 -71 -97 0 -106 2 -111 20 -7 26 -64 43 -129 38
-63 -5 -94 -28 -94 -69 0 -39 33 -54 161 -75 141 -22 198 -45 247 -98 48 -52
67 -110 58 -180 -17 -144 -145 -226 -355 -226 -196 0 -324 83 -347 227 -9 57
6 64 112 61 l89 -3 16 -34 c24 -52 44 -61 128 -61 101 0 126 13 126 65 0 49
-11 55 -155 85 -215 45 -303 119 -304 255 0 112 69 194 192 227 81 22 228 19
310 -7z m822 0 c155 -55 243 -177 257 -354 18 -242 -105 -412 -328 -452 -130
-23 -262 15 -353 101 -113 107 -150 279 -99 460 27 97 95 179 191 229 77 40
241 48 332 16z m954 5 c57 -17 138 -102 162 -170 17 -49 19 -86 19 -340 l0
-285 -110 0 -110 0 -5 272 c-5 256 -6 273 -26 300 -28 37 -60 53 -111 53 -72
0 -131 -34 -156 -90 -7 -15 -14 -123 -17 -280 l-5 -255 -110 0 -110 0 0 395 0
395 100 0 100 0 15 -32 15 -32 34 27 c77 59 201 76 315 42z m-2356 -84 c2 -65
-1 -92 -10 -98 -7 -4 -51 -8 -96 -8 -109 0 -147 -17 -176 -79 -19 -42 -21 -69
-26 -286 l-5 -240 -105 0 -105 0 0 395 0 395 98 3 98 3 15 -36 15 -36 34 30
c19 17 51 33 72 36 21 4 45 8 53 10 8 2 42 2 75 2 l60 -2 3 -89z m-2081 72 c5
-7 52 -136 104 -285 52 -150 98 -272 103 -270 5 2 52 124 105 272 53 149 100
276 104 283 5 8 35 12 87 12 90 0 90 0 90 -94 0 -57 -13 -96 -155 -451 -89
-223 -170 -411 -190 -442 -64 -96 -160 -138 -305 -131 l-75 3 -3 78 c-2 50 1
84 9 93 8 9 33 14 76 14 81 0 100 10 125 67 l20 45 -61 146 c-211 514 -201
485 -201 576 0 45 3 86 7 89 12 13 150 8 160 -5z m-973 -1134 c4 -9 6 -180 6
-379 -1 -408 2 -436 59 -495 40 -42 89 -60 167 -60 97 0 160 35 196 108 23 46
23 53 28 442 l5 395 107 3 c107 3 107 3 114 -22 3 -14 4 -193 1 -398 -3 -289
-8 -384 -19 -423 -60 -201 -199 -295 -438 -295 -225 0 -363 90 -427 276 -14
42 -17 108 -20 442 -3 217 -2 400 1 408 4 11 29 14 110 14 87 0 105 -3 110
-16z m1966 -79 l0 -96 -107 3 -108 3 -3 79 c-2 44 -1 85 2 93 4 10 32 13 111
13 l105 0 0 -95z m3485 0 l0 -90 -105 0 -105 0 -3 93 -3 93 108 -3 108 -3 0
-90z m480 -75 c4 -11 5 -48 4 -83 l-3 -62 94 -3 c52 -1 100 -8 107 -14 9 -7
13 -36 13 -88 0 -52 -4 -81 -13 -88 -7 -6 -55 -13 -106 -14 l-93 -3 2 -194 c0
-123 5 -200 12 -208 7 -9 38 -13 98 -13 102 0 100 2 100 -100 0 -47 -4 -71
-15 -80 -10 -9 -48 -11 -127 -9 -100 4 -120 7 -171 33 -109 53 -127 110 -127
392 l0 184 -54 0 c-86 0 -86 0 -86 100 0 100 0 100 86 100 l54 0 0 78 c0 43 3
82 7 85 3 4 53 7 109 7 94 0 103 -2 109 -20z m-4533 -151 c94 -25 170 -124
188 -244 12 -84 13 -534 2 -553 -6 -9 -36 -12 -113 -10 l-104 3 -5 265 c-6
272 -10 299 -49 334 -33 30 -119 33 -173 7 -79 -38 -82 -50 -88 -346 l-5 -260
-110 0 -110 0 -3 394 c-2 309 1 396 10 403 7 4 52 8 101 8 l87 0 17 -35 c19
-39 25 -42 44 -19 18 22 84 54 132 64 45 9 120 5 179 -11z m3516 -5 c90 -27
166 -105 173 -179 5 -51 -3 -55 -112 -55 -96 0 -100 1 -109 24 -11 30 -35 38
-111 38 -74 0 -109 -20 -109 -62 0 -43 30 -58 160 -80 203 -34 284 -94 297
-223 18 -179 -145 -300 -382 -284 -163 11 -276 84 -309 198 -26 87 -22 90 102
87 l106 -3 8 -32 c5 -18 16 -37 26 -41 54 -29 181 -23 213 9 24 24 24 61 1 82
-10 9 -54 24 -98 33 -237 47 -330 109 -349 230 -26 179 130 294 375 277 41 -3
95 -11 118 -19z m-1434 -23 c133 -65 196 -173 204 -348 l4 -103 -261 0 c-235
0 -262 -2 -268 -17 -8 -21 25 -81 58 -105 53 -40 163 -35 206 8 23 23 30 25
126 22 l102 -3 -3 -30 c-4 -40 -49 -112 -92 -147 -119 -95 -368 -91 -492 9
-66 54 -114 130 -132 213 -50 217 24 420 180 496 78 38 107 44 211 40 80 -3
102 -8 157 -35z m-1516 -379 l2 -403 -107 3 -108 3 -3 389 c-2 284 1 392 9
403 9 10 35 13 108 11 l96 -3 3 -403z m299 396 c5 -7 36 -80 68 -163 112 -289
138 -355 144 -355 3 0 51 119 106 263 l100 262 73 3 c46 2 79 -2 88 -9 10 -8
14 -34 14 -88 l-1 -76 -143 -315 -143 -315 -98 0 -98 0 -67 150 c-224 503
-210 465 -210 558 0 46 3 87 7 90 12 13 150 8 160 -5z m1760 -28 l16 -40 34
30 c43 38 69 45 173 45 l85 0 3 -92 3 -93 -68 0 c-82 -1 -151 -15 -176 -38
-48 -43 -52 -64 -57 -327 l-5 -250 -104 -3 c-77 -2 -107 1 -113 10 -13 22 -10
772 4 786 8 8 45 12 101 12 l89 0 15 -40z m1428 -365 l0 -400 -105 0 -105 0
-3 390 c-1 214 0 396 3 403 3 9 31 12 107 10 l103 -3 0 -400z m1045 130 c108
-309 109 -310 115 -303 3 3 45 117 94 254 49 137 96 266 104 287 l16 38 78 -3
78 -3 3 -89 3 -88 -142 -357 c-160 -402 -175 -436 -226 -492 -65 -71 -173
-108 -280 -94 l-54 7 3 91 3 92 65 3 c69 3 91 15 116 64 8 15 14 36 14 47 0
11 -58 163 -130 337 -125 305 -130 321 -130 389 0 43 5 76 12 83 9 9 38 12 88
10 l75 -3 95 -270z"/>
<path d="M1038 3194 c-5 -4 -8 -72 -8 -151 l0 -143 185 0 c253 0 291 17 301
133 6 65 -16 113 -66 142 -31 18 -56 20 -220 23 -102 2 -188 0 -192 -4z"/>
<path d="M2969 2870 c-37 -20 -69 -70 -69 -109 0 -21 3 -21 143 -19 l142 3 -2
33 c-4 87 -126 139 -214 92z"/>
<path d="M5258 2870 c-71 -38 -104 -120 -96 -238 9 -122 60 -187 156 -199 78
-9 133 22 168 94 48 97 34 243 -29 312 -48 52 -133 65 -199 31z"/>
<path d="M4270 1423 c-38 -14 -90 -82 -90 -118 0 -14 19 -15 148 -13 l147 3
-3 25 c-9 63 -71 110 -142 109 -25 0 -52 -3 -60 -6z"/>
<path d="M9480 400 l0 -400 260 0 260 0 0 400 0 400 -260 0 -260 0 0 -400z"/>
</g>
</svg>
