<?xml version="1.0" standalone="no"?>
<!DOCTYPE svg PUBLIC "-//W3C//DTD SVG 20010904//EN"
 "http://www.w3.org/TR/2001/REC-SVG-20010904/DTD/svg10.dtd">
<svg version="1.0" xmlns="http://www.w3.org/2000/svg"
 width="500.000000pt" height="500.000000pt" viewBox="0 0 500.000000 500.000000"
 preserveAspectRatio="xMidYMid meet">
<metadata>
Created by potrace 1.16, written by Peter Selinger 2001-2019
</metadata>
<g transform="translate(0.000000,500.000000) scale(0.100000,-0.100000)"
fill="#000000" stroke="none">
<path d="M1040 2345 l0 -1315 1365 0 1365 0 0 255 0 255 -250 0 -250 0 0 1060
0 1060 -1115 0 -1115 0 0 -1315z m1485 792 c205 -59 331 -197 355 -387 28
-228 -69 -421 -256 -511 -34 -16 -67 -29 -73 -29 -25 0 -3 -34 139 -220 l150
-195 0 -115 c0 -77 -4 -120 -12 -128 -15 -15 -149 -16 -180 -1 -13 6 -126 146
-253 311 -126 165 -238 304 -247 309 -10 5 -75 8 -145 7 l-128 -3 -3 -304 c-1
-204 -6 -309 -13 -318 -15 -18 -289 -19 -307 -1 -18 18 -17 1579 1 1597 9 9
110 11 462 9 389 -4 458 -6 510 -21z"/>
<path d="M1881 2866 c-8 -9 -11 -72 -9 -202 l3 -189 270 -3 c263 -2 271 -2
315 20 55 28 85 72 94 137 12 94 -13 168 -74 213 -39 29 -127 38 -366 38 -176
0 -224 -3 -233 -14z"/>
</g>
</svg>
