<?xml version="1.0" standalone="no"?>
<!DOCTYPE svg PUBLIC "-//W3C//DTD SVG 20010904//EN"
 "http://www.w3.org/TR/2001/REC-SVG-20010904/DTD/svg10.dtd">
<svg version="1.0" xmlns="http://www.w3.org/2000/svg"
 width="474.000000pt" height="474.000000pt" viewBox="0 0 474.000000 474.000000"
 preserveAspectRatio="xMidYMid meet">
<metadata>
Created by potrace 1.16, written by Peter Selinger 2001-2019
</metadata>
<g transform="translate(0.000000,474.000000) scale(0.100000,-0.100000)"
fill="#000000" stroke="none">
<path d="M0 2386 c0 -1295 3 -2361 6 -2370 6 -15 223 -16 2364 -16 2141 0
2358 1 2364 16 8 22 8 1609 -1 1618 -4 3 -14 -22 -23 -56 -77 -291 -293 -591
-550 -765 -97 -66 -281 -152 -370 -173 -225 -54 -339 -70 -500 -70 -162 0
-243 12 -490 70 -43 10 -169 57 -184 68 -6 5 -27 15 -46 22 -140 56 -351 223
-470 375 -69 87 -157 243 -196 348 -9 23 -22 56 -29 72 -7 17 -24 80 -38 140
-14 61 -31 133 -38 160 -9 38 -13 396 -16 1483 l-4 1432 -890 0 -889 0 0
-2354z"/>
<path d="M2770 4718 c0 -13 0 -590 -1 -1284 0 -693 3 -1285 6 -1315 13 -115
91 -349 117 -349 4 0 8 -6 8 -14 0 -21 111 -118 166 -145 52 -27 165 -51 234
-51 138 0 278 58 366 153 100 107 150 237 174 452 4 44 9 641 9 1328 l1 1247
-540 0 -540 0 0 -22z"/>
</g>
</svg>
