<?xml version="1.0" standalone="no"?>
<!DOCTYPE svg PUBLIC "-//W3C//DTD SVG 20010904//EN"
 "http://www.w3.org/TR/2001/REC-SVG-20010904/DTD/svg10.dtd">
<svg version="1.0" xmlns="http://www.w3.org/2000/svg"
 width="474.000000pt" height="474.000000pt" viewBox="0 0 474.000000 474.000000"
 preserveAspectRatio="xMidYMid meet">
<metadata>
Created by potrace 1.16, written by Peter Selinger 2001-2019
</metadata>
<g transform="translate(0.000000,474.000000) scale(0.100000,-0.100000)"
fill="#000000" stroke="none">
<path d="M0 2386 c0 -1295 3 -2361 6 -2370 6 -15 223 -16 2364 -16 2141 0
2358 1 2364 16 3 9 6 1075 6 2370 l0 2354 -2370 0 -2370 0 0 -2354z m3751 753
c8 -4 11 -71 11 -213 0 -113 2 -206 4 -206 3 0 20 15 39 34 74 75 224 101 348
61 75 -24 138 -84 166 -160 20 -54 21 -72 19 -393 l-3 -337 -94 -3 c-67 -2
-97 1 -102 10 -4 7 -8 147 -8 313 0 326 -2 345 -56 395 -24 22 -35 25 -104 25
-87 0 -128 -20 -171 -82 -33 -48 -38 -97 -39 -388 -1 -142 -4 -262 -7 -267 -3
-4 -48 -8 -99 -8 l-95 0 -2 606 c-2 391 1 609 7 615 11 11 168 10 186 -2z
m-2804 -313 c134 -29 232 -107 275 -218 28 -74 24 -78 -81 -78 -96 0 -95 0
-134 59 -41 63 -69 76 -162 76 -76 0 -87 -3 -127 -30 -65 -45 -99 -121 -106
-234 -12 -224 77 -344 248 -331 77 5 153 74 169 151 l7 34 94 5 c52 3 99 2
104 -2 5 -4 4 -27 -3 -53 -38 -151 -142 -259 -280 -291 -149 -36 -315 2 -415
95 -134 124 -174 392 -86 586 85 186 280 276 497 231z m873 3 c115 -18 206
-77 242 -156 17 -39 19 -70 19 -389 0 -195 -4 -351 -9 -356 -5 -5 -47 -8 -93
-6 -83 3 -84 3 -82 28 3 46 -5 55 -30 32 -12 -11 -42 -29 -67 -40 -124 -53
-268 -56 -361 -8 -112 58 -144 111 -144 236 0 80 2 88 35 137 27 41 47 59 95
82 69 33 80 36 234 56 194 25 231 44 231 116 0 71 -59 109 -172 109 -98 0
-165 -38 -190 -107 l-12 -34 -96 3 -95 3 3 39 c4 53 43 126 87 164 94 83 245
117 405 91z m960 -24 c27 -14 62 -41 77 -60 32 -40 43 -43 60 -17 6 11 35 35
65 54 96 64 225 73 336 23 64 -29 95 -64 122 -133 19 -51 20 -72 18 -400 l-3
-347 -97 -3 c-75 -2 -98 0 -99 10 0 7 0 123 1 258 0 266 -10 395 -35 434 -41
62 -193 63 -248 1 -49 -56 -50 -63 -54 -380 -2 -165 -6 -306 -8 -312 -3 -9
-32 -13 -100 -13 l-95 0 -2 98 c-1 53 -2 198 -2 322 -1 188 -4 231 -18 262
-20 45 -62 68 -122 68 -80 0 -129 -30 -169 -105 -21 -38 -22 -55 -25 -330 -1
-159 -4 -296 -7 -302 -6 -16 -181 -18 -190 -2 -5 8 -7 345 -5 867 0 10 22 12
93 10 l92 -3 5 -49 5 -49 43 41 c73 70 140 94 245 86 45 -3 85 -13 117 -29z"/>
<path d="M1849 2345 c-3 -2 -59 -13 -126 -24 -171 -27 -210 -49 -227 -128 -20
-90 103 -150 239 -118 44 10 67 22 98 54 41 40 41 40 45 131 4 74 2 90 -10 90
-8 0 -17 -2 -19 -5z"/>
</g>
</svg>
