<?xml version="1.0" standalone="no"?>
<!DOCTYPE svg PUBLIC "-//W3C//DTD SVG 20010904//EN"
 "http://www.w3.org/TR/2001/REC-SVG-20010904/DTD/svg10.dtd">
<svg version="1.0" xmlns="http://www.w3.org/2000/svg"
 width="1280.000000pt" height="640.000000pt" viewBox="0 0 1280.000000 640.000000"
 preserveAspectRatio="xMidYMid meet">
<metadata>
Created by potrace 1.15, written by Peter Selinger 2001-2017
</metadata>
<g transform="translate(0.000000,640.000000) scale(0.100000,-0.100000)"
fill="#000000" stroke="none">
<path d="M11235 5499 c-16 -5 -176 -8 -355 -8 -179 1 -336 -1 -350 -5 -14 -3
-180 -15 -370 -26 -485 -29 -627 -43 -1270 -125 -492 -64 -480 -62 -493 -79
-8 -11 -43 -19 -107 -26 -173 -19 -382 -51 -655 -101 -148 -28 -317 -59 -375
-70 -58 -10 -166 -28 -240 -39 -94 -14 -139 -25 -147 -36 -8 -11 -52 -21 -145
-35 -181 -26 -255 -40 -603 -114 -331 -71 -469 -98 -592 -116 -58 -9 -83 -17
-85 -27 -2 -11 -76 -30 -288 -72 -294 -59 -533 -114 -984 -226 -430 -107 -973
-234 -1001 -234 -3 0 -5 -7 -5 -15 0 -8 -2 -15 -5 -15 -20 0 -298 -63 -525
-120 -151 -38 -334 -81 -407 -96 -98 -20 -133 -31 -136 -44 -3 -11 -24 -20
-68 -28 -35 -6 -194 -48 -354 -92 -159 -44 -346 -93 -414 -108 -87 -19 -125
-31 -128 -42 -3 -11 -51 -26 -167 -53 -218 -50 -429 -108 -611 -168 -134 -45
-153 -54 -180 -87 -16 -20 -56 -65 -87 -99 -40 -43 -58 -71 -58 -89 0 -14 -8
-54 -17 -89 -21 -81 -16 -103 82 -355 40 -102 79 -210 88 -240 15 -53 22 -60
129 -147 192 -155 229 -166 506 -160 108 3 262 12 342 20 152 16 409 32 693
43 133 5 167 9 167 20 0 8 5 14 10 14 6 0 10 -8 10 -17 0 -16 1 -16 17 -1 15
16 19 13 62 -34 25 -28 54 -64 64 -79 21 -32 65 -39 112 -17 14 6 27 9 30 6 3
-3 -10 -39 -30 -80 -19 -41 -46 -115 -60 -164 -23 -78 -26 -102 -22 -189 l5
-101 51 -74 c29 -41 95 -140 148 -220 125 -189 189 -269 230 -286 18 -8 79
-26 136 -39 179 -44 323 -29 497 51 59 27 90 50 150 112 41 42 98 93 125 112
37 26 50 42 50 60 0 17 11 31 32 45 60 37 107 200 101 351 -3 95 -6 106 -45
186 -31 63 -75 123 -170 234 -115 135 -163 195 -163 207 0 3 48 8 108 11 187
12 464 36 897 76 836 79 953 89 1112 101 137 10 162 15 166 29 4 14 23 18 123
24 172 10 579 52 874 90 140 19 440 57 665 86 333 44 413 57 425 71 11 12 48
22 130 34 134 19 209 34 615 120 165 35 343 71 395 79 52 9 110 19 128 22 17
2 32 11 32 18 0 9 144 49 448 125 550 137 522 129 522 146 0 8 10 17 23 20
145 32 221 52 325 86 120 40 124 40 144 22 11 -10 52 -34 91 -53 72 -36 75
-39 91 -112 3 -15 31 -57 61 -95 30 -37 60 -86 67 -108 7 -25 36 -65 77 -110
36 -39 93 -107 126 -152 57 -77 63 -82 120 -100 44 -13 92 -18 180 -17 104 0
130 4 200 28 95 32 165 70 260 141 114 84 193 162 201 198 9 45 31 86 61 113
24 22 25 30 26 121 1 165 -41 255 -227 483 -89 109 -146 202 -130 207 6 2 52
28 102 58 51 30 105 58 120 61 15 4 45 23 67 43 60 55 119 93 233 150 70 35
102 57 102 69 0 9 16 28 36 41 62 43 274 271 274 295 0 14 24 47 62 87 56 58
63 71 80 139 10 41 21 118 24 170 l6 95 -41 62 c-141 210 -453 281 -1127 255
-206 -8 -311 -9 -318 -2 -12 12 -40 12 -81 -1z m-635 -1969 c0 -5 -11 -10 -24
-10 -14 0 -28 -4 -31 -10 -3 -5 -15 -10 -26 -10 -10 0 -19 5 -19 10 0 6 9 10
20 10 11 0 20 5 20 10 0 6 14 10 30 10 17 0 30 -4 30 -10z"/>
</g>
</svg>
